<svg viewBox="0 0 32 32" xml:space="preserve" xmlns="http://www.w3.org/2000/svg"><path d="M20.504 31H10.473c-.827 0-1.469-.673-1.469-1.5v-6a.5.5 0 0 1 1 0v6c0 .275.193.5.469.5h10.031c.275 0 .5-.225.5-.5v-6a.5.5 0 0 1 1 0v6c0 .827-.673 1.5-1.5 1.5z" fill="#ffffff" class="fill-263238"></path><path d="M19.504 31h-3a.5.5 0 0 1-.5-.5v-7a.5.5 0 0 1 1 0V30h2v-6.5a.5.5 0 0 1 1 0v7a.5.5 0 0 1-.5.5zM20.004 12h-1c-.551 0-1-.448-1-1v-1c0-.552.449-1 1-1h1c.551 0 1 .448 1 1v1c0 .552-.449 1-1 1zm0-1v.5-.5zm-1-1v1h1v-1h-1zM16.004 12h-1c-.551 0-1-.448-1-1v-1c0-.552.449-1 1-1h1c.551 0 1 .448 1 1v1c0 .552-.449 1-1 1zm0-1v.5-.5zm-1-1v1h1v-1h-1zM12.004 20h-1c-.551 0-1-.448-1-1v-1c0-.552.449-1 1-1h1c.551 0 1 .448 1 1v1c0 .552-.449 1-1 1zm0-1v.5-.5zm-1-1v1h1v-1h-1zM16.004 20h-1c-.551 0-1-.448-1-1v-1c0-.552.449-1 1-1h1c.551 0 1 .448 1 1v1c0 .552-.449 1-1 1zm0-1v.5-.5zm-1-1v1h1v-1h-1zM20.004 20h-1c-.551 0-1-.448-1-1v-1c0-.552.449-1 1-1h1c.551 0 1 .448 1 1v1c0 .552-.449 1-1 1zm0-1v.5-.5zm-1-1v1h1v-1h-1zM20.004 16h-1c-.551 0-1-.448-1-1v-1c0-.552.449-1 1-1h1c.551 0 1 .448 1 1v1c0 .552-.449 1-1 1zm0-1v.5-.5zm-1-1v1h1v-1h-1zM16.004 16h-1c-.551 0-1-.448-1-1v-1c0-.552.449-1 1-1h1c.551 0 1 .448 1 1v1c0 .552-.449 1-1 1zm0-1v.5-.5zm-1-1v1h1v-1h-1zM12.004 16h-1c-.551 0-1-.448-1-1v-1c0-.552.449-1 1-1h1c.551 0 1 .448 1 1v1c0 .552-.449 1-1 1zm0-1v.5-.5zm-1-1v1h1v-1h-1zM12.004 12h-1c-.551 0-1-.448-1-1v-1c0-.552.449-1 1-1h1c.551 0 1 .448 1 1v1c0 .552-.449 1-1 1zm0-1v.5-.5zm-1-1v1h1v-1h-1zM21.004 8h-11c-.551 0-1-.448-1-1V4c0-.552.449-1 1-1h11c.551 0 1 .448 1 1v3c0 .552-.449 1-1 1zm-11-4v3h11V4h-11z" fill="#ffffff" class="fill-263238"></path><path d="M21.504 22h-12a2.502 2.502 0 0 1-2.5-2.5v-16c0-1.379 1.121-2.5 2.5-2.5h12c1.379 0 2.5 1.121 2.5 2.5v16c0 1.379-1.121 2.5-2.5 2.5zm-12-20c-.827 0-1.5.673-1.5 1.5v16c0 .827.673 1.5 1.5 1.5h12c.827 0 1.5-.673 1.5-1.5v-16c0-.827-.673-1.5-1.5-1.5h-12zM25.504 20a.5.5 0 0 1-.5-.5v-16a.5.5 0 0 1 1 0v16a.5.5 0 0 1-.5.5z" fill="#ffffff" class="fill-263238"></path></svg>