<svg viewBox="0 0 512 512" xml:space="preserve" xmlns="http://www.w3.org/2000/svg"><g fill="#ffffff" class="fill-333333"><path d="M352.565 250.15c-3.217 0-5.252 1.396-6.323 2.574-2.682 2.787-2.682 6.753-2.682 10.29v3.322c0 3.536 0 7.502 2.682 10.398 1.071 1.07 3.107 2.465 6.323 2.465 3.432 0 5.465-1.394 6.538-2.465 2.682-2.896 2.682-6.862 2.682-10.398v-3.322c0-3.537 0-7.503-2.682-10.29-1.074-1.178-3.107-2.574-6.538-2.574zM239.376 259.904c0-2.68 0-5.573-2.463-7.824-1.396-1.393-3.323-1.93-5.254-1.93-2.895 0-4.608 1.395-5.572 2.465-1.181 1.289-2.467 3.645-2.467 7.935v.854h15.756v-1.5zM417.522 261.404h15.864v-1.606c0-2.574 0-5.467-2.465-7.825-1.397-1.395-3.323-1.824-5.254-1.824-2.896 0-4.611 1.288-5.679 2.465-1.075 1.18-2.468 3.645-2.468 7.935h.001v.855zM266.815 250.15l-7.178 2.251v24.544c.963.539 2.144 1.181 3.105 1.505 1.286.319 3.001.749 4.396.749 3.86 0 6.109-1.713 7.182-3.108.965-1.393 2.036-3.966 2.036-10.291v-3.215c0-3.323 0-7.18-2.357-9.753-1.714-1.824-4.502-2.682-7.184-2.682z"></path><path d="M481.641 97.198H29.909c-16.638 0-30.126 13.488-30.126 30.126v257.901c0 16.638 13.488 30.126 30.126 30.126h451.732c16.638 0 30.126-13.488 30.126-30.126V127.324c0-16.638-13.488-30.126-30.126-30.126zM144.066 240.37l-6.837 6.155-6.156-6.837 6.836-6.157 6.157 6.839zm-35.134-5.955-9.233-10.256 10.254-9.234 9.233 10.256-10.254 9.234zm10.473 1.13 9.234 10.256-10.253 9.234-9.233-10.257 10.252-9.233zm-18.815-3.399-13.673 12.311-12.311-13.673 13.673-12.311 12.311 13.673zm-2.526 9.675 12.313 13.674-13.674 12.312-12.312-13.673 13.673-12.313zm9.726 23.629 12.311 13.673-13.674 12.315-12.311-13.676 13.674-12.312zm10.131.999 10.254-9.233 9.234 10.257-10.254 9.232-9.234-10.256zm17.407-46.391-6.837 6.155-6.155-6.838 6.836-6.155 6.156 6.838zm-12.108 87.703a57.077 57.077 0 0 1-28.349 7.507c-31.671 0-57.501-25.83-57.501-57.5 0-31.671 25.83-57.5 57.501-57.5 9.027 0 17.577 2.1 25.192 5.835a52.403 52.403 0 0 1 3.584 1.876l-5.29 4.74-7.954-8.223-13.423 11.971-7.974-8.703-25.002 22.542 16.032 17.664-6.3 5.541 15.789 17.695-6.262 5.524 22.561 25.113 13.392-12.33 11.578 13.212a61.397 61.397 0 0 1-7.574 5.036zm12.953-10.345-9.235-10.254 10.257-9.232 9.233 10.254-10.255 9.232zm9.794-30.578-6.156-6.837 6.837-6.156 6.156 6.838-6.837 6.155zm64.364 4.213c0 7.93-4.826 13.185-12.22 13.185-3.323 0-5.789-.965-8.253-3.002l-.322-.321-.215.321c-2.358 1.931-5.037 3.002-8.36 3.002-3.323 0-6.432-1.178-8.575-3.322-2.359-2.357-3.645-5.786-3.645-9.861v-37.621h7.503v37.621c0 2.037.535 3.646 1.608 4.608.964.965 2.251 1.073 3.109 1.073 1.179 0 4.822-.324 4.822-5.682V233.43h7.504v37.622c0 2.036.535 3.645 1.607 4.607.966.965 2.252 1.074 3.217 1.074 1.071 0 4.716-.325 4.716-5.684v-37.622h7.504v37.624zm32.046 11.47a24.3 24.3 0 0 1-8.788 1.607c-6.217 0-10.504-2.57-13.076-5.357-3.858-4.287-4.396-10.506-4.396-14.687 0-3.644.32-9.431 4.287-13.934 2.358-2.572 6.217-4.823 11.254-4.823 4.823 0 8.576 1.822 11.04 4.394 3.645 3.966 3.859 8.898 3.859 14.901v1.714h-22.939v.965c0 4.503 1.394 7.074 2.571 8.359 1.717 1.931 4.934 3.108 8.472 3.108 2.142 0 3.752-.318 5.787-.965 1.716-.535 3.11-1.18 4.287-1.714l2.144 4.287c-1.179.645-2.896 1.608-4.502 2.145zm37.729-4.289c-3.855 5.041-9.219 5.896-13.183 5.896-5.358 0-10.076-1.608-14.042-3.967v-47.696h6.755v14.685c1.177-.43 2.572-.966 3.643-1.286 1.288-.216 3.107-.537 4.824-.537 3.857 0 7.608 1.393 10.289 3.752 5.146 4.395 5.467 11.36 5.467 15.435 0 4.287-.643 9.537-3.753 13.718zm51.126 5.252h-7.394v-37.621c0-2.144-.536-3.645-1.607-4.717-1.071-.858-2.357-1.072-3.217-1.072-1.176 0-4.821.429-4.821 5.789v37.621h-7.398v-37.621c0-2.144-.534-3.645-1.607-4.717-1.069-.858-2.357-1.072-3.214-1.072-1.179 0-4.825.429-4.825 5.789v37.621h-7.396v-37.62c0-8.039 4.825-13.185 12.221-13.185 3.214 0 5.789.858 8.146 3.002l.32.214.32-.214c2.254-2.036 4.932-3.002 8.253-3.002 3.431 0 6.433 1.18 8.576 3.216 2.359 2.358 3.642 5.789 3.642 9.969l.001 37.62zm33.447-4.177c-2.464 2.57-6.54 4.821-12.113 4.821-5.359 0-9.433-2.251-11.896-4.821-3.858-4.18-4.61-10.076-4.61-14.58 0-4.607.752-10.501 4.61-14.683 2.463-2.573 6.537-4.823 11.896-4.823 5.573 0 9.649 2.25 12.113 4.823 3.857 4.181 4.607 10.076 4.607 14.683 0 4.503-.75 10.4-4.607 14.58zm40.622 4.071h-6.861v-25.511c0-6.107-3.854-7.717-7.071-7.717-3.218 0-6.538 1.396-9.217 3.859v29.369h-6.757v-37.514l6.219.107v3.322c1.821-1.286 3.431-2.251 5.254-2.894 2.251-.965 3.857-1.179 6.107-1.179 3.217 0 6.538.643 9.219 3.645 2.571 3 3.107 6.539 3.107 9.539v24.974zm31.082-.75c-2.999 1.179-6 1.501-8.787 1.501-6.219 0-10.613-2.465-13.078-5.357-3.857-4.287-4.503-10.506-4.503-14.687 0-3.752.431-9.538 4.29-13.934 2.357-2.679 6.214-4.929 11.466-4.929 4.718 0 8.471 1.821 10.935 4.5 3.752 3.966 3.967 8.898 3.967 14.901v1.714h-23.151v.965c0 4.503 1.393 7.074 2.679 8.359 1.716 1.931 4.933 3.108 8.467 3.108 2.144 0 3.753-.318 5.791-.965 1.713-.535 3.106-1.07 4.394-1.714l2.142 4.392c-1.182.647-3.005 1.502-4.612 2.146zm41.376-36.657-14.684 44.161c-.536 1.931-1.929 5.146-3.538 6.965-1.93 2.146-4.501 3.11-7.397 3.11-2.038 0-3.965-.43-5.895-1.5-1.178-.753-2.358-1.501-3.11-2.359l3.218-4.074c.536.539 1.285 1.076 1.932 1.5 1.07.646 2.357.968 3.534.968 2.038 0 3.324-1.07 3.968-1.929.749-.965 1.499-3.215 2.037-4.609l.857-3.002-15.757-39.229h7.394l9.433 23.473c.967 2.248 1.931 5.683 2.146 6.645h.319c1.18-4.503 1.719-6.006 2.683-8.79l6.751-21.33h6.109z"></path></g></svg>